<svg t="1569743875795" class="icon" viewBox="0 0 1024 1024" version="1.1" fill="#424242" 
  xmlns="http://www.w3.org/2000/svg" p-id="5363" width="200" height="200">
  <path d="M679.2 541.5h-336c-17.2 0-31.1-13.9-31.1-31.1 0-17.2 13.9-31.1 31.1-31.1h336c17.2 0 31.1 13.9 31.1 31.1 0 17.2-13.9 31.1-31.1 31.1z" p-id="5364"></path>
  <path d="M510.6 709.5h-0.1c-17.2-0.1-31-14-31-31.2l1.1-336c0.1-17.1 14-31 31.1-31h0.1c17.2 0.1 31 14 31 31.2l-1.1 336c0 17.2-13.9 31-31.1 31z" p-id="5365"></path>
  <path d="M511.2 957.1c-60.3 0-118.8-11.8-173.9-35.1-53.2-22.5-101-54.7-142-95.7s-73.2-88.8-95.7-142c-23.3-55.1-35.1-113.6-35.1-173.9 0-60.3 11.8-118.8 35.1-173.9 22.5-53.2 54.7-101 95.7-142s88.8-73.2 142-95.7c55.1-23.3 113.6-35.1 173.9-35.1S630 75.6 685.1 98.9c53.2 22.5 101 54.7 142 95.7s73.2 88.8 95.7 142c23.3 55.1 35.1 113.6 35.1 173.9 0 60.3-11.8 118.8-35.1 173.9-22.5 53.2-54.7 101-95.7 142s-88.8 73.2-142 95.7c-55.1 23.2-113.6 35-173.9 35z m0-831.2c-51.9 0-102.3 10.2-149.7 30.2-45.8 19.4-86.9 47.1-122.2 82.4s-63.1 76.4-82.4 122.2c-20 47.4-30.2 97.7-30.2 149.7s10.2 102.3 30.2 149.7c19.4 45.8 47.1 86.9 82.4 122.2 35.3 35.3 76.4 63.1 122.2 82.4 47.4 20 97.7 30.2 149.7 30.2 51.9 0 102.3-10.2 149.7-30.2 45.8-19.4 86.9-47.1 122.2-82.4 35.3-35.3 63.1-76.4 82.4-122.2 20-47.4 30.2-97.7 30.2-149.7s-10.2-102.3-30.2-149.7c-19.4-45.8-47.1-86.9-82.4-122.2-35.3-35.3-76.4-63.1-122.2-82.4-47.4-20-97.8-30.2-149.7-30.2z" p-id="5366"></path>
</svg>