<?xml version="1.0" standalone="no"?>
<!DOCTYPE svg PUBLIC "-//W3C//DTD SVG 1.1//EN" "http://www.w3.org/Graphics/SVG/1.1/DTD/svg11.dtd">
<svg t="1569737530376" class="icon" viewBox="0 0 1024 1024" version="1.1" 
  xmlns="http://www.w3.org/2000/svg" p-id="4395" fill="#424242" 
  xmlns:xlink="http://www.w3.org/1999/xlink" width="200" height="200">
  <defs>
    <style type="text/css"></style>
  </defs>
  <path d="M928 384h-832c-8.533333 0-17.066667 4.266667-23.466667 10.666667-6.4 6.4-8.533333 14.933333-8.533333 23.466666l32 448c2.133333 17.066667 14.933333 29.866667 32 29.866667h768c17.066667 0 29.866667-12.8 32-29.866667l32-448c0-8.533333-2.133333-17.066667-8.533333-23.466666-6.4-6.4-14.933333-10.666667-23.466667-10.666667z m-61.866667 448H157.866667L130.133333 448h763.733334l-27.733334 384zM928 192H366.933333l-55.466666-55.466667c-6.4-4.266667-14.933333-8.533333-23.466667-8.533333h-192C78.933333 128 64 142.933333 64 160v128c0 17.066667 14.933333 32 32 32S128 305.066667 128 288V192h147.2l55.466667 55.466667c6.4 6.4 14.933333 8.533333 23.466666 8.533333H896v32c0 17.066667 14.933333 32 32 32s32-14.933333 32-32v-64c0-17.066667-14.933333-32-32-32z" p-id="16151"></path>
</svg>