<?xml version="1.0" standalone="no"?><!DOCTYPE svg PUBLIC "-//W3C//DTD SVG 1.1//EN" "http://www.w3.org/Graphics/SVG/1.1/DTD/svg11.dtd">
<svg t="1569743369171" class="icon" viewBox="0 0 1024 1024" version="1.1" 
  xmlns="http://www.w3.org/2000/svg" p-id="2471" fill="#c5c5c5" 
  xmlns:xlink="http://www.w3.org/1999/xlink" width="200" height="200">
  <defs>
    <style type="text/css"></style>
  </defs>
  <path d="M884.7 405.4l-27.5-9.8c-8.9-3.2-15.9-9.8-19.5-18.5s-3.4-18.3 0.7-26.9l12.5-26.3c20.8-43.8 12.1-94.3-22.2-128.6s-84.8-43-128.6-22.2l-26.3 12.5c-8.6 4.1-18.1 4.3-26.9 0.7-8.8-3.6-15.4-10.6-18.5-19.5l-9.8-27.5C602.3 93.6 560.5 64.1 512 64.1c-48.5 0-90.3 29.5-106.6 75.2l-9.8 27.5c-3.2 8.9-9.8 15.9-18.5 19.5-8.8 3.6-18.3 3.4-26.9-0.7l-26.3-12.5c-43.8-20.8-94.3-12.1-128.6 22.2s-43 84.8-22.2 128.6l12.5 26.3c4.1 8.6 4.3 18.1 0.7 26.9-3.6 8.8-10.6 15.4-19.5 18.5l-27.5 9.8C93.6 421.7 64.1 463.5 64.1 512s29.5 90.3 75.2 106.6l27.5 9.8c8.9 3.2 15.9 9.8 19.5 18.5 3.6 8.8 3.4 18.3-0.7 26.9l-12.5 26.3c-20.8 43.8-12.1 94.3 22.2 128.6s84.8 43 128.6 22.2l26.3-12.5c8.6-4.1 18.1-4.3 26.9-0.7s15.4 10.6 18.5 19.5l9.8 27.5c16.3 45.7 58.1 75.2 106.6 75.2 48.5 0 90.3-29.5 106.6-75.2l9.8-27.5c3.2-8.9 9.8-15.9 18.5-19.5 8.8-3.6 18.3-3.4 26.9 0.7l26.3 12.5c15.8 7.5 32.5 11.2 49 11.2 29.1 0 57.7-11.5 79.6-33.4 34.3-34.3 43-84.8 22.2-128.6l-12.5-26.3c-4.1-8.6-4.3-18.1-0.7-26.9 3.6-8.8 10.6-15.4 19.5-18.5l27.5-9.8c45.7-16.3 75.2-58.1 75.2-106.6s-29.5-90.3-75.2-106.6z m-26.9 137.8l-27.5 9.8c-30.1 10.7-54.4 33.8-66.6 63.3s-11.4 63 2.3 91.9l12.5 26.3c9.3 19.6-2.6 33.8-6.5 37.7-3.9 3.9-18.1 15.8-37.7 6.5L708 766.2c-28.9-13.7-62.3-14.6-91.9-2.3-29.5 12.2-52.6 36.5-63.3 66.6L543 858c-7.3 20.4-25.7 22-31.2 22s-24-1.6-31.2-22l-9.8-27.5c-10.7-30.1-33.8-54.4-63.3-66.6-13.9-5.7-28.6-8.6-43.3-8.6-16.6 0-33.3 3.7-48.6 10.9l-26.3 12.5c-19.6 9.3-33.8-2.6-37.7-6.5-3.9-3.9-15.8-18.1-6.5-37.7l12.5-26.3c13.7-28.9 14.6-62.3 2.3-91.9-12.2-29.5-36.5-52.6-66.6-63.3l-27.5-9.8c-20.4-7.3-22-25.7-22-31.2s1.6-24 22-31.2l27.5-9.8c30.1-10.7 54.4-33.8 66.6-63.3s11.4-63-2.3-91.9l-12.5-26.3c-9.3-19.6 2.6-33.8 6.5-37.7 3.9-3.9 18.1-15.8 37.7-6.5l26.3 12.5c28.9 13.7 62.3 14.6 91.9 2.3 29.5-12.2 52.6-36.5 63.3-66.6l9.8-27.5c7.3-20.4 25.7-22 31.2-22s24 1.6 31.2 22l9.8 27.5c10.7 30.1 33.8 54.4 63.3 66.6 29.5 12.2 63 11.4 91.9-2.3l26.3-12.5c19.6-9.3 33.8 2.6 37.7 6.5 3.9 3.9 15.8 18.1 6.5 37.7L766 315.8c-13.7 28.9-14.6 62.3-2.3 91.9 12.2 29.5 36.5 52.6 66.6 63.3l27.5 9.8c20.4 7.3 22 25.7 22 31.2s-1.5 24-22 31.2z" p-id="2472"></path>
  <path d="M512 320.3c-105.7 0-191.7 86-191.7 191.7s86 191.7 191.7 191.7 191.7-86 191.7-191.7-86-191.7-191.7-191.7z m0 303.4c-61.6 0-111.7-50.1-111.7-111.7S450.4 400.3 512 400.3 623.7 450.4 623.7 512 573.6 623.7 512 623.7z" p-id="2473"></path>
</svg>