<?xml version="1.0" standalone="no"?><!DOCTYPE svg PUBLIC "-//W3C//DTD SVG 1.1//EN" "http://www.w3.org/Graphics/SVG/1.1/DTD/svg11.dtd">
<svg t="1569738611736" class="icon" viewBox="0 0 1024 1024" version="1.1" 
  xmlns="http://www.w3.org/2000/svg" p-id="7178" fill="#c5c5c5" 
  xmlns:xlink="http://www.w3.org/1999/xlink" width="200" height="200">
  <defs>
    <style type="text/css"></style>
  </defs>
  <path d="M650.368 862.72l-3.072-3.072c-15.36-15.36-39.936-21.504-60.928-15.36-22.016 6.144-44.544 9.728-68.096 9.728-24.576 0-48.64-3.584-71.68-10.24-23.552-7.168-48.64 2.56-61.44 24.064-8.192 14.336-9.728 31.232-4.096 46.592 6.144 15.36 18.432 27.136 34.304 31.744 33.28 10.24 67.584 15.36 102.912 15.36 35.84 0 71.168-5.12 104.96-15.872 15.36-5.12 27.648-16.896 33.792-31.744 5.632-15.36 4.608-31.744-3.584-46.08l-3.072-5.12zM704.64 417.28c17.408 16.896 32.768 36.864 44.544 58.368 11.776 20.992 19.968 44.032 25.088 67.584 5.12 24.064 26.112 41.472 50.176 42.496h2.048c15.872 0 30.72-7.168 40.96-18.944 10.752-12.8 14.848-29.184 11.264-45.056-7.168-33.792-19.456-66.56-36.352-97.28-16.896-31.232-38.912-59.392-64.512-83.968-11.776-11.264-27.648-16.384-44.032-14.336-16.384 2.048-30.208 11.264-38.912 25.088-12.288 21.504-8.192 49.152 9.728 66.048zM209.536 584.192c2.048 0 4.096 0 6.144-0.512 24.576-2.56 44.032-22.016 47.104-47.104 2.56-24.576 9.216-48.64 18.944-71.168 9.728-22.528 23.04-43.52 38.4-61.952 15.36-18.944 16.896-45.568 2.56-65.536-9.728-13.312-24.576-22.016-40.96-22.528-16.384-1.024-32.256 6.144-43.008 18.432-22.528 26.112-40.96 55.808-55.296 88.064-14.336 32.768-23.552 67.072-27.136 101.376-2.048 16.384 3.584 32.256 14.848 44.032 10.752 11.264 24.064 16.896 38.4 16.896zM403.072 373.248c9.728 16.896 27.648 27.136 47.104 27.136h131.584c19.456 0 37.376-10.24 47.104-27.136l66.048-114.176c9.728-16.896 9.728-37.376 0-54.272l-66.048-114.176c-9.728-16.896-27.648-27.136-47.104-27.136H450.176c-19.456 0-37.376 10.24-47.104 27.136L337.536 204.8c-9.728 16.896-9.728 37.376 0 54.272l65.536 114.176z m24.576-141.312l44.032-76.8h88.576l44.032 76.8-44.032 76.8H471.68l-44.032-76.8zM298.624 641.536c-9.728-16.896-27.648-27.136-47.104-27.136H119.936c-19.456 0-37.376 10.24-47.104 27.136L7.296 755.712c-9.728 16.896-9.728 37.376 0 54.272l66.048 114.176c9.728 16.896 27.648 27.136 47.104 27.136h131.584c19.456 0 37.376-10.24 47.104-27.136l66.048-114.176c9.728-16.896 9.728-37.376 0-54.272l-66.56-114.176z m-24.064 141.312l-44.032 76.8H141.952l-44.032-76.8 44.032-76.8H230.528l44.032 76.8zM1016.96 762.88l-66.048-114.176c-9.728-16.896-27.648-27.136-47.104-27.136h-131.584c-19.456 0-37.376 10.24-47.104 27.136L659.584 762.88c-9.728 16.896-9.728 37.376 0 54.272l66.048 114.176c9.728 16.896 27.648 27.136 47.104 27.136h131.584c19.456 0 37.376-10.24 47.104-27.136l66.048-114.176c9.216-16.384 9.216-37.376-0.512-54.272z m-90.112 27.136l-44.032 76.8H793.728l-44.032-76.8 44.032-76.8h88.576l44.544 76.8z" p-id="7179"></path>
</svg>