<?xml version="1.0" standalone="no"?><!DOCTYPE svg PUBLIC "-//W3C//DTD SVG 1.1//EN" "http://www.w3.org/Graphics/SVG/1.1/DTD/svg11.dtd">
<svg t="1569600214808" class="icon" viewBox="0 0 1024 1024" version="1.1" 
  xmlns="http://www.w3.org/2000/svg" p-id="3361" fill="#c5c5c5" 
  xmlns:xlink="http://www.w3.org/1999/xlink" width="200" height="200">
  <defs>
    <style type="text/css"></style>
  </defs>
  <path d="M183.04 512l191.146667-228.693333a42.666667 42.666667 0 1 0-65.706667-54.613334l-213.333333 256a42.666667 42.666667 0 0 0 0 54.186667l206.08 256a42.666667 42.666667 0 0 0 33.28 15.786667 42.666667 42.666667 0 0 0 33.28-69.546667zM929.28 485.12l-203.946667-256a42.666667 42.666667 0 0 0-66.56 53.76L840.96 512l-191.146667 229.12a42.666667 42.666667 0 0 0 5.546667 60.16A42.666667 42.666667 0 0 0 682.666667 810.666667a42.666667 42.666667 0 0 0 32.853333-15.36l213.333333-256a42.666667 42.666667 0 0 0 0.426667-54.186667z" p-id="3362"></path>
  <path d="M670.72 486.826667a42.666667 42.666667 0 0 0-60.16 0L554.666667 539.306667V341.333333a42.666667 42.666667 0 0 0-85.333334 0v195.84l-55.04-55.466666a42.666667 42.666667 0 0 0-60.586666 60.586666l128 128A42.666667 42.666667 0 0 0 512 682.666667a42.666667 42.666667 0 0 0 29.44-11.946667l128-123.733333a42.666667 42.666667 0 0 0 1.28-60.16z" p-id="3363"></path>
</svg>